<svg width="24" height="25" viewBox="0 0 24 25" fill="none" xmlns="http://www.w3.org/2000/svg">
<path d="M8 10.5C8 11.0523 8.44772 11.5 9 11.5C9.55228 11.5 10 11.0523 10 10.5H8ZM12 13.5V12.5C11.7348 12.5 11.4804 12.6054 11.2929 12.7929C11.1054 12.9804 11 13.2348 11 13.5H12ZM11 14.5C11 15.0523 11.4477 15.5 12 15.5C12.5523 15.5 13 15.0523 13 14.5H11ZM10 10.5C10 10.1044 10.1173 9.71776 10.3371 9.38886L8.67412 8.27772C8.2346 8.93551 8 9.70887 8 10.5H10ZM10.3371 9.38886C10.5568 9.05996 10.8692 8.80362 11.2346 8.65224L10.4693 6.80448C9.73836 7.10723 9.11365 7.61992 8.67412 8.27772L10.3371 9.38886ZM11.2346 8.65224C11.6001 8.50086 12.0022 8.46126 12.3902 8.53843L12.7804 6.57686C12.0044 6.42252 11.2002 6.50173 10.4693 6.80448L11.2346 8.65224ZM12.3902 8.53843C12.7781 8.6156 13.1345 8.80608 13.4142 9.08579L14.8284 7.67157C14.269 7.11216 13.5563 6.7312 12.7804 6.57686L12.3902 8.53843ZM13.4142 9.08579C13.6939 9.36549 13.8844 9.72186 13.9616 10.1098L15.9231 9.71964C15.7688 8.94371 15.3878 8.23098 14.8284 7.67157L13.4142 9.08579ZM13.9616 10.1098C14.0387 10.4978 13.9991 10.8999 13.8478 11.2654L15.6955 12.0307C15.9983 11.2998 16.0775 10.4956 15.9231 9.71964L13.9616 10.1098ZM13.8478 11.2654C13.6964 11.6308 13.44 11.9432 13.1111 12.1629L14.2223 13.8259C14.8801 13.3864 15.3928 12.7616 15.6955 12.0307L13.8478 11.2654ZM13.1111 12.1629C12.7822 12.3827 12.3956 12.5 12 12.5V14.5C12.7911 14.5 13.5645 14.2654 14.2223 13.8259L13.1111 12.1629ZM11 13.5V14.5H13V13.5H11ZM20 12.5C20 16.9183 16.4183 20.5 12 20.5V22.5C17.5228 22.5 22 18.0228 22 12.5H20ZM12 20.5C7.58172 20.5 4 16.9183 4 12.5H2C2 18.0228 6.47715 22.5 12 22.5V20.5ZM4 12.5C4 8.08172 7.58172 4.5 12 4.5V2.5C6.47715 2.5 2 6.97715 2 12.5H4ZM12 4.5C16.4183 4.5 20 8.08172 20 12.5H22C22 6.97715 17.5228 2.5 12 2.5V4.5Z" fill="#2F6FC1"/>
<circle cx="12" cy="17.5" r="1" fill="#2F6FC1"/>
</svg>
