<svg width="24" height="25" viewBox="0 0 24 25" fill="none" xmlns="http://www.w3.org/2000/svg">
<path d="M12.8432 18.6568C14.5559 19.5188 16.5723 20.1404 18.9375 20.4063C19.5115 20.4709 20 20.011 20 19.4334V17.2808C20 16.8219 19.6877 16.4219 19.2425 16.3106L16.5493 15.6373C16.2085 15.5521 15.848 15.652 15.5996 15.9004L12.8432 18.6568ZM12.8432 18.6568C9.72749 17.0888 7.61705 14.725 6.24117 12.2588M6.24117 12.2588C4.93032 9.90926 4.28622 7.46674 4.07481 5.53084C4.01343 4.96884 4.46855 4.5 5.03389 4.5H7.1802C7.65688 4.5 8.06729 4.83646 8.16078 5.30388L8.89504 8.97521C8.96061 9.30307 8.85799 9.64201 8.62157 9.87843L6.24117 12.2588Z" stroke="#2F6FC1" stroke-width="2"/>
</svg>
