<svg width="24" height="24" viewBox="0 0 24 24" fill="none" xmlns="http://www.w3.org/2000/svg">
<path d="M10.0559 10.7929C9.66534 10.4024 9.03217 10.4024 8.64165 10.7929C8.25112 11.1834 8.25112 11.8166 8.64165 12.2071L10.0559 10.7929ZM11.3488 13.5L10.6416 14.2071C11.0322 14.5976 11.6653 14.5976 12.0559 14.2071L11.3488 13.5ZM16.2071 10.0559C16.5976 9.66534 16.5976 9.03217 16.2071 8.64165C15.8166 8.25112 15.1834 8.25112 14.7929 8.64165L16.2071 10.0559ZM11.7253 3.07849L12 4.04002L11.7253 3.07849ZM12.2747 3.07849L12.5494 2.11697L12.2747 3.07849ZM12.5812 20.5848L12 19.7711H12L12.5812 20.5848ZM11.4188 20.5848L10.8375 21.3986L11.4188 20.5848ZM5 10.8538H4H5ZM9.18762 18.9912L9.76886 18.1774L9.18762 18.9912ZM14.8124 18.9912L15.3936 19.8049L14.8124 18.9912ZM18.2747 4.79278L18 5.7543L18.2747 4.79278ZM5.72528 4.79278L5.45056 3.83125L5.72528 4.79278ZM18 5.7543V10.8538H20V5.7543H18ZM6 10.8538V5.7543H4V10.8538H6ZM14.2311 18.1774L12 19.7711L13.1625 21.3986L15.3936 19.8049L14.2311 18.1774ZM12 19.7711L9.76886 18.1774L8.60638 19.8049L10.8375 21.3986L12 19.7711ZM6 5.7543L12 4.04002L11.4506 2.11697L5.45056 3.83125L6 5.7543ZM12 4.04002L18 5.7543L18.5494 3.83125L12.5494 2.11697L12 4.04002ZM8.64165 12.2071L10.6416 14.2071L12.0559 12.7929L10.0559 10.7929L8.64165 12.2071ZM12.0559 14.2071L16.2071 10.0559L14.7929 8.64165L10.6416 12.7929L12.0559 14.2071ZM12 4.04002L12.5494 2.11697C12.1903 2.01437 11.8097 2.01437 11.4506 2.11697L12 4.04002ZM12 19.7711V19.7711L10.8375 21.3986C11.5329 21.8953 12.4671 21.8953 13.1625 21.3986L12 19.7711ZM4 10.8538C4 14.4063 5.71562 17.7401 8.60638 19.8049L9.76886 18.1774C7.40369 16.488 6 13.7604 6 10.8538H4ZM18 10.8538C18 13.7604 16.5963 16.488 14.2311 18.1774L15.3936 19.8049C18.2844 17.7401 20 14.4063 20 10.8538H18ZM20 5.7543C20 4.86134 19.408 4.07657 18.5494 3.83125L18 5.7543H18H20ZM6 5.7543V5.7543L5.45056 3.83125C4.59195 4.07657 4 4.86134 4 5.7543H6Z" fill="#2F6FC1"/>
</svg>
