<svg width="24" height="24" viewBox="0 0 24 24" fill="none" xmlns="http://www.w3.org/2000/svg">
<path d="M17.3787 18.4851L18.3489 18.7276L17.3787 18.4851ZM13 19C12.4477 19 12 19.4477 12 20C12 20.5523 12.4477 21 13 21V19ZM6 11H6.75V9H6V11ZM7 11.25V14.75H9V11.25H7ZM6.75 15H6V17H6.75V15ZM6 15C4.89543 15 4 14.1046 4 13H2C2 15.2091 3.79086 17 6 17V15ZM7 14.75C7 14.8881 6.88807 15 6.75 15V17C7.99264 17 9 15.9926 9 14.75H7ZM6.75 11C6.88807 11 7 11.1119 7 11.25H9C9 10.0074 7.99264 9 6.75 9V11ZM6 9C3.79086 9 2 10.7909 2 13H4C4 11.8954 4.89543 11 6 11V9ZM18 9H17.25V11H18V9ZM15 11.25V14.75H17V11.25H15ZM17.25 17H18V15H17.25V17ZM18 17C20.2091 17 22 15.2091 22 13H20C20 14.1046 19.1046 15 18 15V17ZM15 14.75C15 15.9926 16.0074 17 17.25 17V15C17.1119 15 17 14.8881 17 14.75H15ZM17.25 9C16.0074 9 15 10.0074 15 11.25H17C17 11.1119 17.1119 11 17.25 11V9ZM18 11C19.1046 11 20 11.8954 20 13H22C22 10.7909 20.2091 9 18 9V11ZM17.0299 15.7575L16.4086 18.2425L18.3489 18.7276L18.9701 16.2425L17.0299 15.7575ZM15.4384 19H13V21H15.4384V19ZM16.4086 18.2425C16.2973 18.6877 15.8973 19 15.4384 19V21C16.815 21 18.015 20.0631 18.3489 18.7276L16.4086 18.2425ZM12 4C14.7614 4 17 6.23858 17 9H19C19 5.13401 15.866 2 12 2V4ZM12 2C8.13401 2 5 5.13401 5 9H7C7 6.23858 9.23858 4 12 4V2ZM7 10V9H5V10H7ZM17 9V10H19V9H17Z" fill="#2F6FC1"/>
</svg>
